<?xml version="1.0" encoding="UTF-8"?>
<svg id="Calque_1" xmlns="http://www.w3.org/2000/svg" version="1.1" viewBox="0 0 1920 1080">
  <!-- Generator: Adobe Illustrator 29.3.1, SVG Export Plug-In . SVG Version: 2.1.0 Build 151)  -->
  <defs>
    <style>
      .st0 {
        fill: #fff;
      }
    </style>
  </defs>
  <path class="st0" d="M1255.68,594.08l612.47-38.17-149.73,5.38c-554.27,19.84-1109.48,31.21-1664.26,42.74C36.08,604.41,18.04,603.99,0,604.76v-56.48h1920v123.65H0v-54.19l452.35-11.44-410.11,29h1070.59c.17,1.34-1.73.72-2.68.76-14.81.61-29.76.29-44.58.73-300.01,8.84-599.99,19.28-900.1,27.48l-14.94,1.55c19.84-.15,39.71.22,59.55.04,376.34-3.29,752.58-8.92,1128.89-13.04,168.85-1.85,337.44-4.33,506.11-6.11,24.71-.26,49.44.26,74.14.03,1.21-.91.02-1.39-1.13-1.53-14.76-1.73-31.16-.92-46.13-1.49-77.26-2.94-154.49-6.43-231.94-8.4l-13.41-1.56"/>
  <path class="st0" d="M1579.14,631.73c-.53-.02-1.63.33-1.52-.43l170.8-7.43.05-5.6-252.77,4.35"/>
  <path d="M1626.85,633.68l13.41,1.56c77.45,1.97,154.7,5.46,231.97,8.4,14.97.57,31.37-.24,46.13,1.49,1.15.13,2.34.61,1.13,1.53-24.7.24-49.44-.29-74.15-.03-168.69,1.78-337.31,4.26-506.18,6.11-376.37,4.12-752.66,9.75-1129.05,13.05-19.85.17-39.72-.2-59.56-.04l14.94-1.55c300.15-8.2,600.17-18.64,900.22-27.48,14.83-.44,44.59-.73,44.59-.73l2.68-.76H42.25l410.17-29L0,617.65v-12.98c18.05-.77,36.09-.36,54.18-.73,554.86-11.53,1110.14-22.9,1664.49-42.75l149.75-5.38-612.56,38.18,355.71,11.85-136.41,10.29,444.35-7.64-.09,9.85-300.24,13.07M843.38,611.54h361.78c.17-1.34-1.73-.72-2.68-.76-28.69-1.2-57.48-2.62-86-4.61-52.14-1.11-103.78-5.09-155.95-4.54l-114.47,9.15-2.68.77Z"/>
  <path class="st0" d="M855.12,610.78l2.71-.78,116.06-9.28c52.89-.56,105.25,3.48,158.12,4.6,28.92,2.02,58.11,3.46,87.2,4.68.96.04,2.89-.59,2.72.77h-366.81Z"/>
</svg>