<?xml version="1.0" encoding="UTF-8"?>
<svg id="Calque_1" xmlns="http://www.w3.org/2000/svg" version="1.1" viewBox="0 0 1920 1080">
  <path d="M1626.85,633.68l13.41,1.56c77.45,1.97,154.7,5.46,231.97,8.4,14.97.57,31.37-.24,46.13,1.49,1.15.13,2.34.61,1.13,1.53-24.7.24-49.44-.29-74.15-.03-168.69,1.78-337.31,4.26-506.18,6.11-376.37,4.12-752.66,9.75-1129.05,13.05-19.85.17-39.72-.2-59.56-.04l14.94-1.55c300.15-8.2,600.17-18.64,900.22-27.48,14.83-.44,44.59-.73,44.59-.73l2.68-.76H42.25l410.17-29L0,617.65v-12.98c18.05-.77,36.09-.36,54.18-.73,554.86-11.53,1110.14-22.9,1664.49-42.75l149.75-5.38-612.56,38.18,355.71,11.85-136.41,10.29,444.35-7.64-.09,9.85-300.24,13.07M843.38,611.54h361.78c.17-1.34-1.73-.72-2.68-.76-28.69-1.2-57.48-2.62-86-4.61-52.14-1.11-103.78-5.09-155.95-4.54l-114.47,9.15-2.68.77Z"/>
</svg>