<?xml version="1.0" encoding="UTF-8"?>
<svg id="Calque_1" data-name="Calque 1" xmlns="http://www.w3.org/2000/svg" viewBox="0 0 700 32.28">
  <path d="M593.33,20.55l4.89.57c28.24.72,56.4,1.99,84.57,3.06,5.46.21,8.81.2,14.19.83.55.07,1.03.16,1.76.29-9.01.09-16.74-.12-25.75-.03-61.5.65-122.98,1.55-184.55,2.23-137.22,1.5-274.41,3.55-411.63,4.76-7.24.06-14.48-.07-21.71-.01l5.45-.57c109.43-2.99,218.81-6.8,328.21-10.02,5.41-.16,16.26-.27,16.26-.27l.98-.28H15.61l137.32-6.91L0,14.96v-4.73c6.58-.28,13.37-.38,19.96-.52C222.26,5.51,424.6,7.39,626.71.16l55.19-.16-212.69,10.92,118.56-.52,14.27.2,97.97-.64v4.73l-109.46,5.03M439.38,12.73c.06-.49-.63-.26-.98-.28-10.46-.44-20.96-.96-31.35-1.68-19.01-.4-36.82,3.09-55.84,3.29M307.48,12.74"/>
</svg>